<?xml version="1.0" encoding="UTF-8"?>
<svg width="77px" height="19px" viewBox="0 0 77 19" version="1.1" xmlns="http://www.w3.org/2000/svg" xmlns:xlink="http://www.w3.org/1999/xlink">
    <!-- Generator: Sketch 52.2 (67145) - http://www.bohemiancoding.com/sketch -->
    <title>Group 38</title>
    <desc>Created with Sketch.</desc>
    <defs>
        <polygon id="path-1" points="0 0.09136 11.89578 0.09136 11.89578 17.99736 0 17.99736"></polygon>
        <path d="M1.7228,0.1788 C0.8162,0.1788 0.1172,0.8782 0.1172,1.7846 L0.1172,16.857 C0.1172,17.7378 0.8162,18.4368 1.7228,18.4368 C2.6032,18.4368 3.3024,17.7378 3.3024,16.857 L3.3024,12.4802 L6.9024,12.4802 C10.8904,12.4802 14.1536,10.3566 14.1536,6.2908 L14.1536,6.239 C14.1536,2.5872 11.5122,0.1788 7.2648,0.1788 L1.7228,0.1788 Z M3.3024,3.0794 L7.0058,3.0794 C9.3886,3.0794 10.9164,4.193 10.9164,6.3168 L10.9164,6.3686 C10.9164,8.2592 9.4144,9.6056 7.0058,9.6056 L3.3024,9.6056 L3.3024,3.0794 Z" id="path-3"></path>
        <linearGradient x1="-0.000850075518%" y1="50.0001228%" x2="100.000508%" y2="50.0001228%" id="linearGradient-5">
            <stop stop-color="#62D680" offset="0%"></stop>
            <stop stop-color="#56BC83" offset="100%"></stop>
        </linearGradient>
        <path d="M13.3436,0.9816 L8.216,8.285 L3.1658,1.0076 C2.7774,0.438 2.3114,0.0494 1.612,0.0494 C0.7056,0.0494 0.0064,0.7226 0.0064,1.5774 C0.0064,2.0176 0.1616,2.3804 0.3688,2.6908 L6.6102,11.2632 L6.6102,16.857 C6.6102,17.7378 7.3094,18.4368 8.1902,18.4368 C9.0962,18.4368 9.7958,17.7378 9.7958,16.857 L9.7958,11.1856 L15.9854,2.717 C16.2184,2.406 16.4256,2.0176 16.4256,1.5774 C16.4256,0.7226 15.804,0.0236 14.8718,0.0236 C14.1986,0.0236 13.7322,0.412 13.3436,0.9816" id="path-6"></path>
        <linearGradient x1="5.29867472e-05%" y1="49.9995411%" x2="100.000063%" y2="49.9995411%" id="linearGradient-8">
            <stop stop-color="#62D680" offset="0%"></stop>
            <stop stop-color="#56BC83" offset="100%"></stop>
        </linearGradient>
        <path d="M0.1634,1.6292 L0.1634,15.062 L0.1634,16.7018 C0.1634,17.6084 0.8624,18.3074 1.769,18.3074 L8.0446,18.3074 L9.301,18.3074 L11.5584,18.3074 C12.3612,18.3074 13.0088,17.66 13.0088,16.857 C13.0088,16.0544 12.3612,15.407 11.5584,15.407 L11.0162,15.407 L7.7598,15.407 L3.3486,15.407 L3.3486,15.062 L3.3486,1.6292 C3.3486,0.7484 2.6496,0.0494 1.769,0.0494 C0.8624,0.0494 0.1634,0.7484 0.1634,1.6292" id="path-9"></path>
        <linearGradient x1="-3.05351379%" y1="50.171319%" x2="26.9935809%" y2="50.0755485%" id="linearGradient-11">
            <stop stop-color="#62D680" offset="0%"></stop>
            <stop stop-color="#56BC83" offset="100%"></stop>
        </linearGradient>
        <path d="M6.3208,2.9828 L7.388,4.7802 L10.5592,10.0134 L2.4988,10.0088 C2.4984,10.0086 2.4982,10.008 2.498,10.0078 L2.353,10.0078 L1.107,12.176 C0.8546,12.5964 0.4556,12.8596 0.033,12.9282 L0.1846,12.9276 C3.2756,12.9148 6.4718,12.9018 10.6554,12.9014 L10.6814,12.9014 L10.6814,12.9 L12.8126,12.9012 C13.0198,12.9012 13.2162,12.8642 13.3954,12.7976 C13.4932,12.768 13.589,12.7276 13.6802,12.673 C14.3618,12.2686 14.5446,11.3786 14.1124,10.6508 L9.453,2.8028 L7.9066,0.1978 L6.3208,2.9828 Z M9.47,3.7536 C9.4702,3.7536 9.4702,3.7534 9.4704,3.7532 L9.4706,3.755 L9.47,3.7536 Z" id="path-12"></path>
        <linearGradient x1="-20.8701782%" y1="-38.9374227%" x2="54.7458166%" y2="100.07955%" id="linearGradient-14">
            <stop stop-color="#62D680" offset="0%"></stop>
            <stop stop-color="#56BC83" offset="100%"></stop>
        </linearGradient>
        <path d="M9.0196,0.611 L0.4146,15.722 L0.243,16.0232 C-0.0894,16.7188 0.1062,17.521 0.723,17.8914 C0.8776,17.9844 1.0424,18.041 1.2098,18.067 L1.6344,18.0652 C1.9568,18.0128 2.265,17.8462 2.5056,17.5836 C2.5536,17.531 2.5978,17.4736 2.6402,17.4138 C2.9376,16.8604 3.8904,15.1994 4.0266,14.9622 C4.0272,14.961 4.0276,14.9594 4.0284,14.958 L4.248,14.572 L7.9218,8.1198 L9.5076,5.3348 L10,4.4696 C10.0394,4.4004 10.1108,4.3588 10.1906,4.3584 L10.1916,4.3584 C10.2316,4.3584 10.2694,4.3688 10.3022,4.3878 C10.3348,4.4066 10.3624,4.4338 10.3824,4.468 L11.6828,6.7072 C11.7388,6.8034 11.8008,6.9102 11.8666,7.0226 L14.4698,11.4072 L18.083,17.4302 C18.5152,18.158 19.3842,18.4236 20.0462,18.0308 C20.7276,17.626 20.9102,16.7362 20.4782,16.0082 L13.9736,5.116 C13.0168,3.4912 12.1912,2.0846 11.65,1.1534 L11.336,0.6142 C11.0448,0.2908 10.626,0.1054 10.187,0.1054 C9.7344,0.1054 9.321,0.2834 9.0196,0.611" id="path-15"></path>
        <linearGradient x1="-6.30167091%" y1="50.0005363%" x2="99.9998114%" y2="50.0005363%" id="linearGradient-17">
            <stop stop-color="#62D680" offset="0%"></stop>
            <stop stop-color="#56BC83" offset="100%"></stop>
        </linearGradient>
        <path d="M0.205,0.2085 L0.2065,0.2115 L0.206,0.207 C0.206,0.207 0.2055,0.208 0.205,0.2085" id="path-18"></path>
        <linearGradient x1="-2634.57111%" y1="0.45958%" x2="-447.07111%" y2="0.45958%" id="linearGradient-20">
            <stop stop-color="#62D680" offset="0%"></stop>
            <stop stop-color="#3AC882" offset="100%"></stop>
        </linearGradient>
        <path d="M4.765,2.9332 L0.9374,2.9332 C0.9336,2.9342 0.93,2.9348 0.9264,2.9358 L0.1776,2.9356 C0.4536,2.9244 0.8268,2.7256 1.1066,2.407 C1.154,2.3532 1.1996,2.2962 1.2424,2.2358 C1.4902,1.7754 2.1862,0.5566 2.5,0.0084 L2.5742,0.0084 L5.8606,0.0084 L5.9414,0.0084 L4.765,2.9332 Z" id="path-21"></path>
    </defs>
    <g id="Symbols" stroke="none" stroke-width="1" fill="none" fill-rule="evenodd">
        <g id="header" transform="translate(-54.000000, -12.000000)">
            <g id="Group-38">
                <g transform="translate(54.000000, 12.000000)">
                    <g id="Group-16" transform="translate(0.000000, 0.576620)">
                        <path d="M21.44712,10.30922 L21.44712,10.95982 L18.37792,10.95982 L18.37792,10.64542 C18.37792,9.68402 18.50712,9.01242 18.77232,8.59182 C19.03632,8.17482 19.41892,7.98042 19.97592,7.98042 C20.43972,7.98042 20.79292,8.18042 21.05712,8.59342 C21.31592,8.98022 21.44712,9.55762 21.44712,10.30922 Z M23.48552,12.57562 L23.48552,10.98162 C23.48552,9.40662 23.16572,8.20142 22.53452,7.39962 C21.88272,6.57642 20.96252,6.15902 19.79952,6.15902 C18.69112,6.15902 17.81252,6.60322 17.18832,7.47902 C16.56812,8.35002 16.26672,9.53802 16.26672,11.11022 L16.26672,13.48462 C16.26672,14.94042 16.56932,16.06762 17.16652,16.83442 C17.78292,17.62322 18.68612,18.02302 19.85132,18.02302 C20.90752,18.02302 21.72552,17.71222 22.35292,17.07142 C22.95332,16.43182 23.30852,15.49662 23.40852,14.29182 L23.41492,14.21402 L21.53092,14.21402 L21.52372,14.27762 C21.45172,14.91082 21.28692,15.40302 21.03652,15.73702 C20.77152,16.05402 20.43452,16.20162 19.97592,16.20162 C19.42072,16.20162 19.03872,15.98342 18.77412,15.51502 C18.50772,15.04322 18.37792,14.29522 18.37792,13.22782 L18.37792,12.57562 L23.48552,12.57562 Z" id="Fill-7" fill="#000000"></path>
                        <g id="Group-11">
                            <mask id="mask-2" fill="white">
                                <use xlink:href="#path-1"></use>
                            </mask>
                            <g id="Clip-10"></g>
                            <path d="M11.42858,1.86136 C11.68618,1.86136 11.89578,1.64736 11.89578,1.38416 L11.89578,0.56856 C11.89578,0.30556 11.68618,0.09136 11.42858,0.09136 L7.54418,0.09136 C7.28658,0.09136 7.07698,0.30556 7.07698,0.56856 L7.07698,1.38416 C7.07698,1.64736 7.28658,1.86136 7.54418,1.86136 L8.24218,1.86136 C8.32598,1.86136 8.39698,1.89296 8.44178,1.95036 C8.48698,2.00796 8.50158,2.08556 8.48298,2.16916 L6.02718,13.28136 C6.02098,13.30996 6.01458,13.33216 6.00878,13.34856 C6.00318,13.33196 5.99698,13.30996 5.99078,13.28136 L3.56218,2.16956 C3.54378,2.08596 3.55858,2.00816 3.60378,1.95056 C3.64918,1.89296 3.72018,1.86136 3.80398,1.86136 L4.52778,1.86136 C4.78538,1.86136 4.99498,1.64736 4.99498,1.38416 L4.99498,0.56856 C4.99498,0.30556 4.78538,0.09136 4.52778,0.09136 L0.46718,0.09136 C0.20958,0.09136 -2e-05,0.30556 -2e-05,0.56856 L-2e-05,1.38416 C-2e-05,1.64736 0.20958,1.86136 0.46718,1.86136 L0.76038,1.86136 C0.94598,1.86136 1.14138,2.01636 1.18718,2.19996 L4.28418,14.63656 L5.12118,17.99736 L6.82398,17.99736 L10.48678,2.20036 C10.52938,2.01656 10.72178,1.86136 10.90678,1.86136 L11.42858,1.86136 Z" id="Fill-9" fill="#000000" mask="url(#mask-2)"></path>
                        </g>
                        <path d="M11.81626,4.11624 C11.81626,4.37924 12.02586,4.59344 12.28346,4.59344 L13.36246,4.59344 C13.62026,4.59344 13.82966,4.37924 13.82966,4.11624 L13.82966,3.29984 C13.82966,3.03684 13.62026,2.82264 13.36246,2.82264 L12.28346,2.82264 C12.02586,2.82264 11.81626,3.03684 11.81626,3.29984 L11.81626,4.11624 Z" id="Fill-12" fill="#000000"></path>
                        <path d="M14.5985,16.40492 L14.2311,16.40492 C14.0511,16.40492 13.9045,16.25532 13.9045,16.07132 L13.9045,7.14812 C13.9045,6.88492 13.6949,6.67092 13.4373,6.67092 L11.1215,6.67092 C10.8639,6.67092 10.6543,6.88492 10.6543,7.14812 L10.6543,7.88652 C10.6543,8.14972 10.8639,8.36372 11.1215,8.36372 L11.4897,8.36372 C11.6697,8.36372 11.8163,8.51332 11.8163,8.69732 L11.8163,16.07132 C11.8163,16.25532 11.6697,16.40492 11.4897,16.40492 C11.4897,16.40492 10.6543,16.61872 10.6543,16.88212 L10.6543,18.09772 L15.0657,18.09772 L15.0657,16.88212 C15.0657,16.61872 14.8561,16.40492 14.5985,16.40492" id="Fill-14" fill="#000000"></path>
                    </g>
                    <g id="Group-19" transform="translate(25.800000, 0.176620)">
                        <mask id="mask-4" fill="white">
                            <use xlink:href="#path-3"></use>
                        </mask>
                        <g id="Clip-18"></g>
                        <path d="M1.7228,0.1788 C0.8162,0.1788 0.1172,0.8782 0.1172,1.7846 L0.1172,16.857 C0.1172,17.7378 0.8162,18.4368 1.7228,18.4368 C2.6032,18.4368 3.3024,17.7378 3.3024,16.857 L3.3024,12.4802 L6.9024,12.4802 C10.8904,12.4802 14.1536,10.3566 14.1536,6.2908 L14.1536,6.239 C14.1536,2.5872 11.5122,0.1788 7.2648,0.1788 L1.7228,0.1788 Z M3.3024,3.0794 L7.0058,3.0794 C9.3886,3.0794 10.9164,4.193 10.9164,6.3168 L10.9164,6.3686 C10.9164,8.2592 9.4144,9.6056 7.0058,9.6056 L3.3024,9.6056 L3.3024,3.0794 Z" id="Fill-17" fill="url(#linearGradient-5)" mask="url(#mask-4)"></path>
                    </g>
                    <g id="Group-22" transform="translate(59.800000, 0.176620)">
                        <mask id="mask-7" fill="white">
                            <use xlink:href="#path-6"></use>
                        </mask>
                        <g id="Clip-21"></g>
                        <path d="M13.3436,0.9816 L8.216,8.285 L3.1658,1.0076 C2.7774,0.438 2.3114,0.0494 1.612,0.0494 C0.7056,0.0494 0.0064,0.7226 0.0064,1.5774 C0.0064,2.0176 0.1616,2.3804 0.3688,2.6908 L6.6102,11.2632 L6.6102,16.857 C6.6102,17.7378 7.3094,18.4368 8.1902,18.4368 C9.0962,18.4368 9.7958,17.7378 9.7958,16.857 L9.7958,11.1856 L15.9854,2.717 C16.2184,2.406 16.4256,2.0176 16.4256,1.5774 C16.4256,0.7226 15.804,0.0236 14.8718,0.0236 C14.1986,0.0236 13.7322,0.412 13.3436,0.9816" id="Fill-20" fill="url(#linearGradient-8)" mask="url(#mask-7)"></path>
                    </g>
                    <g id="Group-25" transform="translate(40.200000, 0.176620)">
                        <mask id="mask-10" fill="white">
                            <use xlink:href="#path-9"></use>
                        </mask>
                        <g id="Clip-24"></g>
                        <path d="M0.1634,1.6292 L0.1634,15.062 L0.1634,16.7018 C0.1634,17.6084 0.8624,18.3074 1.769,18.3074 L8.0446,18.3074 L9.301,18.3074 L11.5584,18.3074 C12.3612,18.3074 13.0088,17.66 13.0088,16.857 C13.0088,16.0544 12.3612,15.407 11.5584,15.407 L11.0162,15.407 L7.7598,15.407 L3.3486,15.407 L3.3486,15.062 L3.3486,1.6292 C3.3486,0.7484 2.6496,0.0494 1.769,0.0494 C0.8624,0.0494 0.1634,0.7484 0.1634,1.6292" id="Fill-23" fill="url(#linearGradient-11)" mask="url(#mask-10)"></path>
                    </g>
                    <g id="Group-28" transform="translate(46.200000, 5.576620)">
                        <mask id="mask-13" fill="white">
                            <use xlink:href="#path-12"></use>
                        </mask>
                        <g id="Clip-27"></g>
                        <path d="M6.3208,2.9828 L7.388,4.7802 L10.5592,10.0134 L2.4988,10.0088 C2.4984,10.0086 2.4982,10.008 2.498,10.0078 L2.353,10.0078 L1.107,12.176 C0.8546,12.5964 0.4556,12.8596 0.033,12.9282 L0.1846,12.9276 C3.2756,12.9148 6.4718,12.9018 10.6554,12.9014 L10.6814,12.9014 L10.6814,12.9 L12.8126,12.9012 C13.0198,12.9012 13.2162,12.8642 13.3954,12.7976 C13.4932,12.768 13.589,12.7276 13.6802,12.673 C14.3618,12.2686 14.5446,11.3786 14.1124,10.6508 L9.453,2.8028 L7.9066,0.1978 L6.3208,2.9828 Z M9.47,3.7536 C9.4702,3.7536 9.4702,3.7534 9.4704,3.7532 L9.4706,3.755 L9.47,3.7536 Z" id="Fill-26" fill="url(#linearGradient-14)" mask="url(#mask-13)"></path>
                    </g>
                    <g id="Group-31" transform="translate(44.000000, 0.376620)">
                        <mask id="mask-16" fill="white">
                            <use xlink:href="#path-15"></use>
                        </mask>
                        <g id="Clip-30"></g>
                        <path d="M9.0196,0.611 L0.4146,15.722 L0.243,16.0232 C-0.0894,16.7188 0.1062,17.521 0.723,17.8914 C0.8776,17.9844 1.0424,18.041 1.2098,18.067 L1.6344,18.0652 C1.9568,18.0128 2.265,17.8462 2.5056,17.5836 C2.5536,17.531 2.5978,17.4736 2.6402,17.4138 C2.9376,16.8604 3.8904,15.1994 4.0266,14.9622 C4.0272,14.961 4.0276,14.9594 4.0284,14.958 L4.248,14.572 L7.9218,8.1198 L9.5076,5.3348 L10,4.4696 C10.0394,4.4004 10.1108,4.3588 10.1906,4.3584 L10.1916,4.3584 C10.2316,4.3584 10.2694,4.3688 10.3022,4.3878 C10.3348,4.4066 10.3624,4.4338 10.3824,4.468 L11.6828,6.7072 C11.7388,6.8034 11.8008,6.9102 11.8666,7.0226 L14.4698,11.4072 L18.083,17.4302 C18.5152,18.158 19.3842,18.4236 20.0462,18.0308 C20.7276,17.626 20.9102,16.7362 20.4782,16.0082 L13.9736,5.116 C13.0168,3.4912 12.1912,2.0846 11.65,1.1534 L11.336,0.6142 C11.0448,0.2908 10.626,0.1054 10.187,0.1054 C9.7344,0.1054 9.321,0.2834 9.0196,0.611" id="Fill-29" fill="url(#linearGradient-17)" mask="url(#mask-16)"></path>
                    </g>
                    <g id="Group-34" transform="translate(52.200000, 6.376620)">
                        <mask id="mask-19" fill="white">
                            <use xlink:href="#path-18"></use>
                        </mask>
                        <g id="Clip-33"></g>
                        <path d="M0.205,0.2085 L0.2065,0.2115 L0.206,0.207 C0.206,0.207 0.2055,0.208 0.205,0.2085" id="Fill-32" fill="url(#linearGradient-20)" mask="url(#mask-19)"></path>
                    </g>
                    <g id="Group-37" transform="translate(45.400000, 15.576620)">
                        <mask id="mask-22" fill="white">
                            <use xlink:href="#path-21"></use>
                        </mask>
                        <g id="Clip-36"></g>
                        <path d="M4.765,2.9332 L5.9414,0.0084 L5.8606,0.0084 L2.5742,0.0084 L2.5,0.0084 C2.1862,0.5566 1.4902,1.7754 1.2424,2.2358 C1.1996,2.2962 1.154,2.3532 1.1066,2.407 C0.8268,2.7256 0.4536,2.9244 0.1776,2.9356 L0.9264,2.9358 C0.93,2.9348 0.9336,2.9342 0.9374,2.9332 L4.765,2.9332 Z" id="Fill-35" mask="url(#mask-22)"></path>
                    </g>
                </g>
            </g>
        </g>
    </g>
</svg>